<?xml version="1.0" encoding="UTF-8"?>
<svg xmlns="http://www.w3.org/2000/svg" version="1.1" width="500" height="500" viewBox="0 0 500 500"><rect x="0" y="0" width="500" height="500" fill="#ffffff"/><g transform="scale(17.241)"><g transform="translate(0,0)"><path fill-rule="evenodd" d="M10 0L10 2L11 2L11 0ZM12 0L12 1L13 1L13 2L12 2L12 4L14 4L14 5L11 5L11 6L10 6L10 4L11 4L11 3L8 3L8 4L9 4L9 5L8 5L8 7L9 7L9 8L6 8L6 9L5 9L5 8L0 8L0 9L5 9L5 10L3 10L3 11L5 11L5 12L6 12L6 13L7 13L7 12L6 12L6 11L7 11L7 10L8 10L8 11L9 11L9 10L8 10L8 9L10 9L10 11L11 11L11 9L12 9L12 10L13 10L13 11L12 11L12 13L16 13L16 14L15 14L15 15L17 15L17 13L19 13L19 14L18 14L18 16L17 16L17 17L16 17L16 16L15 16L15 17L14 17L14 16L13 16L13 17L12 17L12 15L14 15L14 14L11 14L11 15L10 15L10 14L9 14L9 15L8 15L8 14L5 14L5 13L4 13L4 12L1 12L1 11L2 11L2 10L1 10L1 11L0 11L0 14L1 14L1 15L3 15L3 14L5 14L5 15L4 15L4 16L0 16L0 21L1 21L1 18L2 18L2 17L3 17L3 18L5 18L5 19L8 19L8 23L9 23L9 24L8 24L8 29L9 29L9 28L10 28L10 27L11 27L11 26L10 26L10 27L9 27L9 24L11 24L11 25L12 25L12 26L13 26L13 27L12 27L12 29L13 29L13 28L14 28L14 29L16 29L16 28L14 28L14 27L16 27L16 26L14 26L14 25L12 25L12 23L14 23L14 24L15 24L15 25L18 25L18 26L17 26L17 27L18 27L18 28L17 28L17 29L18 29L18 28L21 28L21 29L22 29L22 28L23 28L23 26L24 26L24 27L25 27L25 28L24 28L24 29L25 29L25 28L26 28L26 29L27 29L27 28L28 28L28 26L29 26L29 23L28 23L28 22L29 22L29 21L28 21L28 19L27 19L27 20L26 20L26 17L28 17L28 18L29 18L29 16L28 16L28 14L29 14L29 12L26 12L26 11L25 11L25 10L26 10L26 8L25 8L25 9L24 9L24 8L23 8L23 9L22 9L22 8L21 8L21 9L19 9L19 6L18 6L18 5L15 5L15 4L19 4L19 5L20 5L20 7L21 7L21 4L19 4L19 3L20 3L20 2L21 2L21 1L20 1L20 0L19 0L19 1L18 1L18 3L17 3L17 1L15 1L15 0L14 0L14 1L13 1L13 0ZM8 1L8 2L9 2L9 1ZM14 1L14 2L13 2L13 3L14 3L14 4L15 4L15 3L16 3L16 2L15 2L15 1ZM19 1L19 2L20 2L20 1ZM14 5L14 6L13 6L13 7L12 7L12 6L11 6L11 7L12 7L12 9L13 9L13 10L16 10L16 11L13 11L13 12L16 12L16 13L17 13L17 12L19 12L19 13L20 13L20 14L19 14L19 16L18 16L18 17L17 17L17 18L18 18L18 17L19 17L19 16L21 16L21 17L20 17L20 18L19 18L19 19L20 19L20 20L19 20L19 21L17 21L17 20L18 20L18 19L16 19L16 21L15 21L15 18L16 18L16 17L15 17L15 18L14 18L14 17L13 17L13 18L12 18L12 17L11 17L11 16L10 16L10 18L9 18L9 17L8 17L8 16L7 16L7 15L6 15L6 16L5 16L5 18L9 18L9 20L10 20L10 19L11 19L11 22L14 22L14 21L15 21L15 22L16 22L16 23L15 23L15 24L18 24L18 25L19 25L19 27L22 27L22 26L23 26L23 25L22 25L22 26L21 26L21 25L20 25L20 24L19 24L19 23L18 23L18 22L20 22L20 20L24 20L24 19L25 19L25 18L24 18L24 17L26 17L26 16L27 16L27 14L28 14L28 13L26 13L26 12L24 12L24 9L23 9L23 10L22 10L22 9L21 9L21 10L19 10L19 9L13 9L13 8L14 8L14 6L15 6L15 7L16 7L16 6L15 6L15 5ZM9 6L9 7L10 7L10 6ZM17 6L17 8L18 8L18 6ZM10 8L10 9L11 9L11 8ZM27 8L27 9L28 9L28 10L27 10L27 11L28 11L28 10L29 10L29 9L28 9L28 8ZM6 9L6 10L7 10L7 9ZM17 10L17 11L16 11L16 12L17 12L17 11L18 11L18 10ZM19 11L19 12L20 12L20 13L22 13L22 14L20 14L20 15L22 15L22 16L23 16L23 17L21 17L21 19L22 19L22 18L23 18L23 19L24 19L24 18L23 18L23 17L24 17L24 16L26 16L26 13L24 13L24 12L23 12L23 11L21 11L21 12L20 12L20 11ZM9 12L9 13L11 13L11 12ZM22 12L22 13L23 13L23 14L22 14L22 15L23 15L23 16L24 16L24 15L25 15L25 14L24 14L24 13L23 13L23 12ZM23 14L23 15L24 15L24 14ZM6 16L6 17L7 17L7 16ZM2 19L2 21L3 21L3 20L4 20L4 19ZM12 19L12 21L14 21L14 20L13 20L13 19ZM5 20L5 21L7 21L7 20ZM25 20L25 22L26 22L26 23L25 23L25 24L27 24L27 22L28 22L28 21L26 21L26 20ZM9 21L9 22L10 22L10 21ZM16 21L16 22L17 22L17 21ZM21 21L21 24L24 24L24 21ZM22 22L22 23L23 23L23 22ZM24 25L24 26L25 26L25 25ZM26 25L26 28L27 28L27 25ZM0 0L0 7L7 7L7 0ZM1 1L1 6L6 6L6 1ZM2 2L2 5L5 5L5 2ZM22 0L22 7L29 7L29 0ZM23 1L23 6L28 6L28 1ZM24 2L24 5L27 5L27 2ZM0 22L0 29L7 29L7 22ZM1 23L1 28L6 28L6 23ZM2 24L2 27L5 27L5 24Z" fill="#000000"/></g></g></svg>
