<?xml version="1.0" encoding="UTF-8"?>
<svg xmlns="http://www.w3.org/2000/svg" version="1.1" width="500" height="500" viewBox="0 0 500 500"><rect x="0" y="0" width="500" height="500" fill="#ffffff"/><g transform="scale(17.241)"><g transform="translate(0,0)"><path fill-rule="evenodd" d="M10 0L10 2L11 2L11 0ZM12 0L12 1L13 1L13 2L12 2L12 4L14 4L14 5L11 5L11 6L10 6L10 4L11 4L11 3L8 3L8 4L9 4L9 5L8 5L8 7L9 7L9 8L6 8L6 9L7 9L7 10L6 10L6 11L5 11L5 12L6 12L6 13L5 13L5 14L3 14L3 11L2 11L2 10L0 10L0 12L1 12L1 16L0 16L0 21L1 21L1 16L2 16L2 19L5 19L5 20L2 20L2 21L5 21L5 20L6 20L6 21L7 21L7 20L6 20L6 19L7 19L7 18L6 18L6 17L7 17L7 16L8 16L8 17L9 17L9 16L11 16L11 17L10 17L10 18L11 18L11 17L12 17L12 18L13 18L13 17L15 17L15 16L16 16L16 17L19 17L19 18L20 18L20 17L22 17L22 18L23 18L23 17L24 17L24 20L20 20L20 21L18 21L18 20L17 20L17 21L16 21L16 19L17 19L17 18L15 18L15 19L14 19L14 20L13 20L13 19L12 19L12 21L16 21L16 22L15 22L15 23L14 23L14 22L11 22L11 21L10 21L10 20L11 20L11 19L10 19L10 20L9 20L9 18L8 18L8 20L9 20L9 21L8 21L8 23L10 23L10 22L11 22L11 24L10 24L10 26L9 26L9 24L8 24L8 29L11 29L11 27L10 27L10 26L11 26L11 25L12 25L12 26L13 26L13 27L12 27L12 29L13 29L13 28L14 28L14 29L16 29L16 28L14 28L14 27L17 27L17 25L19 25L19 26L18 26L18 27L19 27L19 28L22 28L22 27L23 27L23 26L24 26L24 28L25 28L25 29L27 29L27 28L28 28L28 26L29 26L29 23L28 23L28 22L29 22L29 21L28 21L28 19L27 19L27 20L26 20L26 18L27 18L27 17L28 17L28 18L29 18L29 16L28 16L28 14L29 14L29 13L28 13L28 14L27 14L27 16L25 16L25 15L26 15L26 14L25 14L25 13L24 13L24 12L26 12L26 13L27 13L27 12L28 12L28 11L27 11L27 10L29 10L29 9L28 9L28 8L27 8L27 10L25 10L25 9L26 9L26 8L25 8L25 9L24 9L24 8L23 8L23 9L22 9L22 8L21 8L21 6L20 6L20 7L19 7L19 5L21 5L21 4L18 4L18 3L20 3L20 2L18 2L18 3L17 3L17 2L16 2L16 1L15 1L15 0L14 0L14 1L13 1L13 0ZM18 0L18 1L21 1L21 0ZM8 1L8 2L9 2L9 1ZM14 1L14 2L13 2L13 3L14 3L14 4L15 4L15 5L14 5L14 6L13 6L13 7L12 7L12 6L11 6L11 7L12 7L12 9L11 9L11 8L10 8L10 9L8 9L8 11L6 11L6 12L8 12L8 13L6 13L6 14L9 14L9 15L10 15L10 14L14 14L14 15L12 15L12 17L13 17L13 16L15 16L15 14L16 14L16 16L18 16L18 15L19 15L19 16L22 16L22 17L23 17L23 14L24 14L24 13L23 13L23 11L25 11L25 10L19 10L19 9L21 9L21 8L19 8L19 7L18 7L18 4L17 4L17 3L16 3L16 2L15 2L15 1ZM15 3L15 4L16 4L16 5L15 5L15 6L14 6L14 8L13 8L13 9L12 9L12 10L13 10L13 9L19 9L19 8L15 8L15 6L16 6L16 7L17 7L17 4L16 4L16 3ZM9 6L9 7L10 7L10 6ZM0 8L0 9L3 9L3 10L4 10L4 9L5 9L5 8ZM10 9L10 11L11 11L11 9ZM15 10L15 11L14 11L14 12L13 12L13 11L12 11L12 13L16 13L16 14L17 14L17 15L18 15L18 14L20 14L20 15L22 15L22 14L23 14L23 13L21 13L21 12L22 12L22 11L19 11L19 10L18 10L18 12L17 12L17 11L16 11L16 10ZM1 11L1 12L2 12L2 11ZM26 11L26 12L27 12L27 11ZM9 12L9 13L11 13L11 12ZM16 12L16 13L17 13L17 14L18 14L18 13L20 13L20 14L21 14L21 13L20 13L20 12L18 12L18 13L17 13L17 12ZM2 14L2 16L3 16L3 17L4 17L4 18L5 18L5 16L7 16L7 15L4 15L4 16L3 16L3 14ZM24 16L24 17L25 17L25 18L26 18L26 17L25 17L25 16ZM25 20L25 21L26 21L26 22L25 22L25 24L27 24L27 23L26 23L26 22L28 22L28 21L26 21L26 20ZM9 21L9 22L10 22L10 21ZM17 21L17 24L16 24L16 25L15 25L15 24L14 24L14 23L12 23L12 25L14 25L14 26L16 26L16 25L17 25L17 24L19 24L19 25L20 25L20 23L18 23L18 21ZM21 21L21 24L24 24L24 21ZM22 22L22 23L23 23L23 22ZM22 25L22 26L20 26L20 27L22 27L22 26L23 26L23 25ZM24 25L24 26L25 26L25 25ZM26 25L26 26L27 26L27 25ZM25 27L25 28L27 28L27 27ZM17 28L17 29L18 29L18 28ZM0 0L0 7L7 7L7 0ZM1 1L1 6L6 6L6 1ZM2 2L2 5L5 5L5 2ZM22 0L22 7L29 7L29 0ZM23 1L23 6L28 6L28 1ZM24 2L24 5L27 5L27 2ZM0 22L0 29L7 29L7 22ZM1 23L1 28L6 28L6 23ZM2 24L2 27L5 27L5 24Z" fill="#000000"/></g></g></svg>
