<?xml version="1.0" encoding="UTF-8"?>
<svg xmlns="http://www.w3.org/2000/svg" version="1.1" width="300" height="300" viewBox="0 0 300 300"><rect x="0" y="0" width="300" height="300" fill="#ffffff"/><g transform="scale(10.345)"><g transform="translate(0,0)"><path fill-rule="evenodd" d="M10 0L10 2L11 2L11 0ZM12 0L12 1L13 1L13 0ZM14 0L14 1L15 1L15 2L16 2L16 3L15 3L15 4L14 4L14 3L13 3L13 2L12 2L12 4L14 4L14 5L11 5L11 6L10 6L10 4L11 4L11 3L8 3L8 4L9 4L9 5L8 5L8 7L9 7L9 8L6 8L6 9L10 9L10 11L11 11L11 9L12 9L12 10L13 10L13 9L14 9L14 11L15 11L15 12L13 12L13 11L12 11L12 13L18 13L18 15L19 15L19 14L20 14L20 15L22 15L22 14L23 14L23 15L26 15L26 13L27 13L27 14L29 14L29 13L27 13L27 12L29 12L29 11L27 11L27 10L29 10L29 9L28 9L28 8L27 8L27 10L26 10L26 8L25 8L25 9L24 9L24 8L23 8L23 9L22 9L22 8L20 8L20 9L18 9L18 8L19 8L19 6L18 6L18 8L15 8L15 9L14 9L14 8L13 8L13 9L12 9L12 7L13 7L13 6L14 6L14 7L15 7L15 6L16 6L16 7L17 7L17 5L15 5L15 4L19 4L19 5L21 5L21 4L19 4L19 3L20 3L20 2L21 2L21 1L20 1L20 0L19 0L19 1L18 1L18 0L17 0L17 1L15 1L15 0ZM8 1L8 2L9 2L9 1ZM17 1L17 3L18 3L18 1ZM19 1L19 2L20 2L20 1ZM14 5L14 6L15 6L15 5ZM9 6L9 7L10 7L10 6ZM11 6L11 7L12 7L12 6ZM20 6L20 7L21 7L21 6ZM0 8L0 9L1 9L1 10L0 10L0 13L1 13L1 14L0 14L0 21L1 21L1 18L2 18L2 17L4 17L4 19L2 19L2 20L3 20L3 21L8 21L8 23L9 23L9 24L8 24L8 29L9 29L9 28L10 28L10 29L11 29L11 28L10 28L10 27L11 27L11 25L12 25L12 26L13 26L13 27L12 27L12 29L13 29L13 28L14 28L14 29L19 29L19 28L21 28L21 29L23 29L23 28L21 28L21 27L23 27L23 26L24 26L24 27L25 27L25 26L24 26L24 25L26 25L26 26L27 26L27 28L24 28L24 29L27 29L27 28L28 28L28 26L29 26L29 23L28 23L28 22L29 22L29 21L28 21L28 19L27 19L27 20L25 20L25 19L26 19L26 18L27 18L27 17L28 17L28 18L29 18L29 16L28 16L28 15L27 15L27 16L25 16L25 17L24 17L24 16L23 16L23 17L22 17L22 16L19 16L19 17L18 17L18 16L17 16L17 15L16 15L16 14L11 14L11 15L10 15L10 13L11 13L11 12L9 12L9 15L8 15L8 13L7 13L7 12L8 12L8 11L9 11L9 10L8 10L8 11L7 11L7 10L5 10L5 8ZM10 8L10 9L11 9L11 8ZM3 9L3 10L2 10L2 11L1 11L1 12L2 12L2 14L3 14L3 16L4 16L4 17L5 17L5 16L8 16L8 17L6 17L6 18L5 18L5 19L4 19L4 20L8 20L8 21L10 21L10 22L9 22L9 23L11 23L11 22L13 22L13 23L12 23L12 25L14 25L14 26L18 26L18 25L19 25L19 27L21 27L21 26L23 26L23 25L20 25L20 24L19 24L19 22L20 22L20 20L21 20L21 19L22 19L22 20L24 20L24 19L25 19L25 18L26 18L26 17L25 17L25 18L24 18L24 17L23 17L23 18L22 18L22 17L20 17L20 18L18 18L18 17L17 17L17 16L16 16L16 15L12 15L12 17L11 17L11 16L10 16L10 15L9 15L9 16L8 16L8 15L6 15L6 14L7 14L7 13L6 13L6 12L7 12L7 11L6 11L6 12L5 12L5 13L4 13L4 14L3 14L3 11L4 11L4 9ZM15 9L15 10L16 10L16 12L18 12L18 13L20 13L20 14L22 14L22 13L23 13L23 14L24 14L24 13L25 13L25 12L27 12L27 11L26 11L26 10L25 10L25 11L23 11L23 10L24 10L24 9L23 9L23 10L22 10L22 9L20 9L20 10L18 10L18 9ZM17 10L17 11L18 11L18 12L20 12L20 13L22 13L22 12L23 12L23 13L24 13L24 12L23 12L23 11L21 11L21 10L20 10L20 11L18 11L18 10ZM1 15L1 17L2 17L2 15ZM4 15L4 16L5 16L5 15ZM9 16L9 17L8 17L8 18L6 18L6 19L8 19L8 20L10 20L10 18L11 18L11 17L10 17L10 16ZM13 16L13 17L12 17L12 18L13 18L13 19L12 19L12 21L14 21L14 23L15 23L15 25L18 25L18 24L17 24L17 22L15 22L15 21L18 21L18 22L19 22L19 21L18 21L18 20L20 20L20 19L18 19L18 20L16 20L16 18L17 18L17 17L16 17L16 16ZM9 17L9 18L8 18L8 19L9 19L9 18L10 18L10 17ZM13 17L13 18L14 18L14 19L13 19L13 20L14 20L14 21L15 21L15 20L14 20L14 19L15 19L15 18L16 18L16 17ZM23 18L23 19L24 19L24 18ZM21 21L21 24L24 24L24 21ZM25 21L25 24L27 24L27 23L26 23L26 22L28 22L28 21ZM22 22L22 23L23 23L23 22ZM9 24L9 25L10 25L10 24ZM9 26L9 27L10 27L10 26ZM14 27L14 28L15 28L15 27ZM17 27L17 28L18 28L18 27ZM0 0L0 7L7 7L7 0ZM1 1L1 6L6 6L6 1ZM2 2L2 5L5 5L5 2ZM22 0L22 7L29 7L29 0ZM23 1L23 6L28 6L28 1ZM24 2L24 5L27 5L27 2ZM0 22L0 29L7 29L7 22ZM1 23L1 28L6 28L6 23ZM2 24L2 27L5 27L5 24Z" fill="#000000"/></g></g></svg>
