<?xml version="1.0" encoding="UTF-8"?>
<svg xmlns="http://www.w3.org/2000/svg" version="1.1" width="500" height="500" viewBox="0 0 500 500"><rect x="0" y="0" width="500" height="500" fill="#ffffff"/><g transform="scale(17.241)"><g transform="translate(0,0)"><path fill-rule="evenodd" d="M10 0L10 2L11 2L11 0ZM12 0L12 1L13 1L13 0ZM14 0L14 1L15 1L15 3L13 3L13 2L12 2L12 4L16 4L16 5L15 5L15 6L14 6L14 5L11 5L11 6L10 6L10 4L11 4L11 3L8 3L8 4L9 4L9 5L8 5L8 7L9 7L9 8L6 8L6 9L5 9L5 8L0 8L0 10L1 10L1 9L3 9L3 10L2 10L2 12L0 12L0 16L1 16L1 15L2 15L2 16L3 16L3 15L2 15L2 14L1 14L1 13L3 13L3 14L4 14L4 16L6 16L6 17L7 17L7 16L9 16L9 17L8 17L8 18L9 18L9 19L10 19L10 18L11 18L11 17L12 17L12 18L15 18L15 19L16 19L16 18L17 18L17 19L18 19L18 20L13 20L13 19L12 19L12 21L19 21L19 19L18 19L18 18L17 18L17 17L19 17L19 18L20 18L20 17L21 17L21 18L25 18L25 19L23 19L23 20L21 20L21 19L20 19L20 22L19 22L19 23L18 23L18 24L17 24L17 25L16 25L16 24L15 24L15 25L16 25L16 26L14 26L14 25L12 25L12 23L14 23L14 22L11 22L11 21L8 21L8 19L7 19L7 18L5 18L5 17L3 17L3 18L2 18L2 17L0 17L0 21L1 21L1 18L2 18L2 19L3 19L3 20L2 20L2 21L5 21L5 20L6 20L6 21L8 21L8 23L9 23L9 24L8 24L8 29L10 29L10 28L9 28L9 27L10 27L10 26L9 26L9 24L11 24L11 25L12 25L12 26L13 26L13 27L12 27L12 29L13 29L13 28L14 28L14 29L19 29L19 28L22 28L22 29L25 29L25 28L26 28L26 29L27 29L27 28L28 28L28 26L29 26L29 23L28 23L28 22L29 22L29 21L28 21L28 19L27 19L27 20L26 20L26 17L28 17L28 18L29 18L29 16L28 16L28 14L29 14L29 13L28 13L28 14L26 14L26 13L27 13L27 12L29 12L29 11L27 11L27 10L29 10L29 9L28 9L28 8L27 8L27 10L26 10L26 11L27 11L27 12L25 12L25 9L26 9L26 8L25 8L25 9L24 9L24 8L23 8L23 9L22 9L22 8L21 8L21 9L19 9L19 8L20 8L20 7L21 7L21 5L20 5L20 4L21 4L21 2L20 2L20 4L18 4L18 3L17 3L17 4L16 4L16 2L17 2L17 1L15 1L15 0ZM18 0L18 2L19 2L19 1L21 1L21 0ZM8 1L8 2L9 2L9 1ZM17 4L17 5L16 5L16 6L15 6L15 7L14 7L14 6L13 6L13 7L12 7L12 6L11 6L11 7L12 7L12 9L11 9L11 8L10 8L10 9L6 9L6 10L9 10L9 12L7 12L7 11L6 11L6 12L5 12L5 9L4 9L4 11L3 11L3 13L6 13L6 14L5 14L5 15L6 15L6 16L7 16L7 15L9 15L9 16L10 16L10 17L9 17L9 18L10 18L10 17L11 17L11 16L10 16L10 15L9 15L9 14L14 14L14 15L12 15L12 17L13 17L13 16L14 16L14 17L15 17L15 18L16 18L16 17L17 17L17 16L19 16L19 17L20 17L20 16L19 16L19 15L21 15L21 17L25 17L25 16L27 16L27 15L25 15L25 14L22 14L22 13L25 13L25 12L23 12L23 11L24 11L24 9L23 9L23 10L22 10L22 9L21 9L21 11L22 11L22 13L20 13L20 12L18 12L18 11L20 11L20 10L19 10L19 9L17 9L17 8L18 8L18 6L19 6L19 7L20 7L20 5L18 5L18 4ZM9 6L9 7L10 7L10 6ZM16 6L16 7L17 7L17 6ZM13 8L13 9L12 9L12 10L13 10L13 9L16 9L16 10L14 10L14 11L15 11L15 12L13 12L13 11L12 11L12 13L18 13L18 14L17 14L17 15L16 15L16 14L15 14L15 15L14 15L14 16L15 16L15 17L16 17L16 16L17 16L17 15L19 15L19 14L20 14L20 13L18 13L18 12L16 12L16 10L17 10L17 11L18 11L18 10L17 10L17 9L16 9L16 8ZM10 9L10 11L11 11L11 9ZM6 12L6 13L7 13L7 14L6 14L6 15L7 15L7 14L9 14L9 13L11 13L11 12L9 12L9 13L7 13L7 12ZM22 15L22 16L25 16L25 15ZM3 18L3 19L4 19L4 20L5 20L5 18ZM6 19L6 20L7 20L7 19ZM25 20L25 21L26 21L26 22L25 22L25 23L26 23L26 24L25 24L25 25L22 25L22 26L21 26L21 25L20 25L20 24L18 24L18 25L17 25L17 26L16 26L16 28L19 28L19 27L20 27L20 26L21 26L21 27L22 27L22 28L24 28L24 27L22 27L22 26L25 26L25 25L26 25L26 28L27 28L27 25L26 25L26 24L27 24L27 23L26 23L26 22L28 22L28 21L26 21L26 20ZM21 21L21 24L24 24L24 21ZM9 22L9 23L10 23L10 22ZM15 22L15 23L16 23L16 22ZM22 22L22 23L23 23L23 22ZM18 25L18 26L17 26L17 27L19 27L19 25ZM14 27L14 28L15 28L15 27ZM0 0L0 7L7 7L7 0ZM1 1L1 6L6 6L6 1ZM2 2L2 5L5 5L5 2ZM22 0L22 7L29 7L29 0ZM23 1L23 6L28 6L28 1ZM24 2L24 5L27 5L27 2ZM0 22L0 29L7 29L7 22ZM1 23L1 28L6 28L6 23ZM2 24L2 27L5 27L5 24Z" fill="#000000"/></g></g></svg>
